<svg width="121" height="60" viewBox="0 0 121 60" fill="none" xmlns="http://www.w3.org/2000/svg">
<g clip-path="url(#clip0_40558_36967)">
<path d="M120.885 0H60.8827V60H120.885V0Z" fill="white"/>
<path d="M81.6249 17.024C87.5932 17.024 91.8014 20.6187 93.4921 24.32L87.8119 26.4747C86.7665 24.352 84.5424 22.6293 81.6303 22.6293C77.6727 22.6293 74.654 25.8293 74.654 29.9627C74.654 34.096 77.6727 37.296 81.6303 37.296C84.5424 37.296 86.7718 35.568 87.8119 33.4507L93.4921 35.6053C91.8014 39.3067 87.5932 42.9013 81.6249 42.9013C74.1099 42.9013 68.323 37.2587 68.323 29.9573C68.323 22.656 74.1099 17.0133 81.6249 17.0133V17.024Z" fill="#010101"/>
<path d="M94.5641 37.1573L105.749 22.7787H94.5641V17.3867H113.264V22.7787L102.079 37.1573H113.264V42.5493H94.5641V37.1573Z" fill="#010101"/>
<path d="M60.8827 0H0.880005V60H60.8827V0Z" fill="#E00922"/>
<path fill-rule="evenodd" clip-rule="evenodd" d="M29.3933 22.7253L20.7422 22.7093V42.7573H14.5446V22.7093H7.07227V17.2427H35.4095L46.5247 32.3307V17.2427H52.7223V42.7573H46.706L35.5909 27.6693V42.7573H29.3933V22.7253Z" fill="white"/>
</g>
<defs>
<clipPath id="clip0_40558_36967">
<rect width="120" height="60" fill="white" transform="translate(0.880005)"/>
</clipPath>
</defs>
</svg>
