<svg xmlns="http://www.w3.org/2000/svg" viewBox="0 0 105 20">
  <g fill="none" fill-rule="nonzero">
    <path fill="#3C3C3B" d="M13.107 15.705H9.57a169.103 169.103 0 0 0-3.253-5.537 198.497 198.497 0 0 0-3.49-5.537v11.074H0V1h3.795a157.777 157.777 0 0 1 3.3 5.22 179.187 179.187 0 0 1 3.136 5.4V1h2.876v14.705zm7.85.295c-.896 0-1.674-.09-2.334-.272-.66-.182-1.226-.5-1.65-.93-.448-.432-.778-1.022-.99-1.77-.213-.75-.33-1.657-.33-2.747 0-1.089.117-2.02.33-2.723.212-.726.542-1.293.99-1.724.448-.432.99-.727 1.673-.908.66-.182 1.438-.272 2.31-.272.896 0 1.674.09 2.358.272.684.181 1.226.476 1.674.908.447.43.778.998.99 1.724.212.726.33 1.634.33 2.723 0 1.09-.118 2.02-.33 2.746-.212.75-.543 1.316-.99 1.77a3.863 3.863 0 0 1-1.674.93c-.684.182-1.485.273-2.357.273zm0-9.236c-.472 0-.873.045-1.203.136-.306.09-.565.25-.778.5-.188.249-.33.612-.424 1.066-.07.454-.118 1.09-.118 1.86 0 .75.047 1.362.118 1.816.07.454.212.817.424 1.09.189.25.448.43.778.521.307.091.708.137 1.203.137.471 0 .895-.046 1.225-.137.33-.09.59-.272.778-.522.189-.25.33-.612.425-1.089.07-.454.117-1.066.117-1.815 0-.772-.047-1.384-.117-1.861-.071-.454-.213-.817-.425-1.067a1.285 1.285 0 0 0-.778-.499 4.91 4.91 0 0 0-1.225-.136zm11.503 6.309c.519-1.362 1.038-2.7 1.509-4.062.471-1.362.896-2.7 1.273-4.062H38a80.795 80.795 0 0 1-1.862 5.378 135.787 135.787 0 0 1-2.169 5.378h-3.347a194.893 194.893 0 0 0-1.768-5.582 60.468 60.468 0 0 0-1.98-5.174h2.828c.495 1.202.99 2.518 1.462 3.925a105.72 105.72 0 0 1 1.296 4.199z"/>
    <path fill="#A21A17" d="M40.574 0c.278 0 .532.024.718.048a.917.917 0 0 1 .463.19.807.807 0 0 1 .254.407c.047.167.07.406.07.716 0 .645-.116 1.075-.324 1.266-.232.19-.625.286-1.204.286s-.995-.095-1.227-.286C39.093 2.436 39 2.03 39 1.36c0-.286.023-.525.07-.716a.807.807 0 0 1 .254-.406.917.917 0 0 1 .463-.191C40.019 0 40.273 0 40.574 0zm1.32 16H39.23V4.68h2.663V16zm5.092 0h-2.662V5.325c.324-.143.718-.262 1.134-.382.417-.12.857-.215 1.32-.31a13.958 13.958 0 0 1 2.754-.287c.764 0 1.436.096 2.014.263a3.058 3.058 0 0 1 1.39.884c.37.406.624.955.81 1.623.161.693.254 1.529.254 2.556v6.304h-2.662V9.958c0-.62-.023-1.146-.093-1.552-.07-.406-.185-.74-.37-.955a1.256 1.256 0 0 0-.718-.478c-.3-.095-.694-.143-1.157-.143-.671 0-1.32.095-1.968.263V16h-.046z"/>
    <path fill="#3C3C3B" d="M64.668 16c-1.323-1.854-2.376-3.28-3.185-4.28-.808-.998-1.347-1.545-1.666-1.687v5.943H57V0h2.817v10.009c.319-.262.858-.832 1.642-1.712.76-.903 1.715-2.092 2.866-3.59h3.357c-1.127 1.474-2.083 2.64-2.842 3.495-.76.856-1.299 1.379-1.617 1.617.294.166.857.784 1.69 1.783.833 1.022 1.862 2.472 3.087 4.35h-3.332M80.091 4.336A108.876 108.876 0 0 1 78.846 8.3c-.447 1.346-.916 2.691-1.41 4.036a98.747 98.747 0 0 1-1.574 3.964 77.145 77.145 0 0 1-1.716 3.7h-3.008c.282-.529.588-1.13.917-1.802.329-.672.61-1.297.893-1.922-.282-1.009-.564-2.042-.893-3.099-.306-1.057-.635-2.09-.964-3.123A82.966 82.966 0 0 0 69 4.312h2.82a63.536 63.536 0 0 1 1.457 4.156 93.74 93.74 0 0 1 1.292 4.469c.517-1.442 1.034-2.883 1.504-4.324.47-1.442.893-2.883 1.246-4.3h2.772m1.669 8.192c.329 0 .61.024.846.048.235.048.4.12.54.216a.82.82 0 0 1 .282.48c.047.192.094.48.094.817 0 .384-.023.673-.094.889a1.13 1.13 0 0 1-.282.528c-.14.12-.305.217-.54.265a4.286 4.286 0 0 1-.846.072c-.33 0-.588-.024-.8-.072-.21-.048-.375-.12-.516-.265-.141-.12-.235-.312-.282-.528a4.257 4.257 0 0 1-.094-.889c0-.336.023-.625.094-.817a1.08 1.08 0 0 1 .282-.48.924.924 0 0 1 .517-.216 7.16 7.16 0 0 1 .799-.048m12.619 2.93c-.212.097-.47.169-.752.24-.282.073-.564.145-.87.169-.305.048-.61.072-.916.12-.306.024-.588.048-.846.048-.846 0-1.598-.096-2.28-.288a4.187 4.187 0 0 1-1.738-.985c-.47-.457-.846-1.081-1.105-1.874-.258-.793-.376-1.754-.376-2.907s.118-2.138.376-2.883c.259-.769.635-1.37 1.105-1.826.47-.456 1.057-.769 1.738-.96.682-.193 1.434-.289 2.28-.289.258 0 .54.024.87.048.305.024.634.072.94.12.305.048.587.096.869.168.282.072.517.144.728.217l-.61 2.378c-.353-.144-.753-.24-1.223-.336a6.741 6.741 0 0 0-2.655-.024c-.376.072-.658.24-.917.504-.235.264-.423.625-.54 1.081-.118.48-.165 1.105-.165 1.898 0 .769.047 1.37.165 1.85.117.48.305.84.54 1.105.235.264.54.432.917.529.376.096.799.144 1.292.144.47 0 .917-.048 1.387-.168.446-.097.846-.24 1.198-.385l.588 2.306M105 4.336v.553c-.4.649-.846 1.37-1.363 2.138l-1.55 2.306c-.518.77-1.035 1.49-1.528 2.187a46.637 46.637 0 0 1-1.293 1.753h5.593v2.403h-9.822v-.553c.517-.697 1.08-1.417 1.644-2.21.564-.793 1.128-1.562 1.645-2.33.517-.77 1.01-1.49 1.434-2.163.446-.672.799-1.225 1.08-1.705H95.39V4.312H105"/>
  </g>
</svg>
