<svg xmlns="http://www.w3.org/2000/svg" xmlns:xlink="http://www.w3.org/1999/xlink" width="77" height="24">
  <defs>
    <path id="a" d="M69.1 13.24h-4.37v-.11L68.97 7h.12v6.25Zm0 8.13h5.55v-4.1H77v-4.03h-2.35V1.67h-6.34l-9.08 11.57v4.02h9.86v4.11Zm-20.54-4.02c.75-2.53 9.47-3.93 9.47-10.24 0-4.16-3.73-5.89-7.93-5.89-2.72.02-5.38.83-7.64 2.32l1.47 3.75c1.72-.95 3.55-1.63 5.3-1.63 1.65 0 3.03.62 3.03 1.93 0 4.2-9.65 4.1-9.65 12.08 0 .57.04 1.14.12 1.7h15.24v-4.02h-9.4ZM9.03.31c2.4-.18 4.98-.28 7.08-.31v3.08c-1 .04-2.1.1-3.15.21-3.66.39-4.35 1.18-4.8 4.66-.31 2.7-.31 5.4 0 8.1.45 3.48 1.14 4.27 4.8 4.66 1.05.1 2.16.17 3.15.2V24c-2.1-.03-4.68-.13-7.08-.32-6.57-.52-7.8-1.58-8.6-6.25-.57-3.6-.57-7.26 0-10.86C1.23 1.9 2.46.84 9.03.31ZM35.83 12c0 1.82-.14 3.63-.43 5.43-.8 4.68-2.03 5.74-8.6 6.25-2.4.2-4.98.29-7.08.32v-3.08c1-.04 2.1-.1 3.14-.21 3.67-.4 4.36-1.18 4.8-4.67.32-2.68.32-5.4 0-8.08-.44-3.5-1.13-4.28-4.8-4.67a47.02 47.02 0 0 0-3.14-.21V0c2.1.03 4.68.13 7.07.31 6.58.52 7.81 1.58 8.6 6.26.3 1.8.44 3.61.44 5.43Z"/>
  </defs>
  <use fill="#FFF" fill-rule="evenodd" xlink:href="#a"/>
</svg>
