<svg width="2317" height="1272" viewBox="0 0 2317 1272" fill="none" xmlns="http://www.w3.org/2000/svg">
<path d="M1116.51 19.0505C1093.57 32.0509 976.564 99.3475 856.501 168.173C736.438 237.764 607.963 312.708 569.726 334.121C443.545 406.006 58.1197 630.837 28.2951 649.191L0 666.78L27.5304 711.134C42.8251 734.841 55.8255 755.489 57.355 757.018C58.8845 758.548 304.364 617.837 871.031 289.766C1023.98 201.057 1153.22 129.172 1157.81 129.172C1162.39 129.172 1243.46 174.291 1338.28 228.587C1433.11 282.883 1638.06 401.417 1793.3 490.891C1949.31 580.365 2116.78 677.486 2166.49 705.781C2216.2 734.841 2257.49 758.548 2259.02 758.548C2260.55 758.548 2274.32 737.9 2288.85 712.664L2316.38 666.78L2288.08 648.426C2272.79 639.249 2222.31 609.425 2175.67 582.659C2129.78 555.893 2010.48 487.067 1911.83 429.712C1674 290.531 1208.28 22.1094 1173.87 2.99109C1160.87 -3.12683 1150.16 -0.832642 1116.51 19.0505Z" fill="black"/>
<path d="M433.745 729.153C425.528 731.573 416.953 738.716 412.904 746.55C409.808 752.425 409.212 763.485 411.594 770.513C414.333 778.232 421.479 785.836 429.22 789.292L435.532 792.057L587.137 792.403L738.861 792.633L738.146 783.186C736.598 761.412 736.241 745.398 737.193 736.988L738.146 728.117L587.375 728.232C504.486 728.232 435.413 728.693 433.745 729.153Z" fill="black"/>
<path d="M1574.62 760.375L1574.5 792.633L1726.38 792.403L1878.25 792.057L1885.06 788.831C1897.24 783.071 1903.22 773.739 1903.22 760.375C1903.34 753.232 1902.74 750.697 1900.11 745.859C1896.77 739.753 1891.03 734.223 1884.46 730.766C1880.87 728.808 1871.31 728.693 1727.69 728.347L1574.74 728.117L1574.62 760.375Z" fill="black"/>
<path d="M522.438 876.949C507.635 881.812 499.228 893.484 499.228 909.532C499.228 923.149 505.267 933.241 517.82 940.049L522.675 942.724L646.188 943.089C749.925 943.332 769.583 943.089 769.583 941.751C769.583 940.779 766.386 930.566 762.359 918.894C758.452 907.222 753.952 892.754 752.53 886.797L749.807 875.854L638.609 875.611C549.793 875.49 526.464 875.733 522.438 876.949Z" fill="black"/>
<path d="M1560.73 876.221C1560.37 876.828 1559.17 880.954 1558.09 885.687C1556.89 890.299 1552.58 904.498 1548.38 916.998C1544.19 929.619 1540.71 940.663 1540.71 941.634C1540.71 943.09 1557.61 943.333 1665.73 943.09L1790.64 942.726L1795.43 940.056C1816.65 928.284 1820.61 900.493 1803.23 884.716C1793.04 875.371 1802.63 875.978 1675.32 875.614C1612.63 875.493 1560.97 875.735 1560.73 876.221Z" fill="black"/>
<path d="M612.739 1028.05C588.902 1034.69 580.372 1063.78 596.848 1082.61C600.003 1086.23 604.326 1089.61 607.832 1091.18L613.674 1093.71L726.9 1093.47L840.243 1093.11L827.39 1072.59C820.379 1061.24 812.434 1048.21 809.863 1043.62C807.175 1038.92 803.787 1033.12 802.268 1030.59L799.58 1026.12L709.256 1026.24C634.239 1026.24 617.997 1026.6 612.739 1028.05Z" fill="black"/>
<path d="M1505.89 1035.4C1503.17 1040.46 1495.24 1053.59 1488.26 1064.68C1481.29 1075.64 1474.31 1086.72 1472.77 1089.13L1470.05 1093.71H1585.25C1695.24 1093.71 1700.56 1093.59 1705.17 1091.42C1717.59 1085.64 1724.93 1073.95 1725.04 1059.98C1725.04 1046.6 1718.3 1036 1705.65 1029.98L1699.14 1026.84L1605 1026.48L1510.74 1026.12L1505.89 1035.4Z" fill="black"/>
<path d="M949.091 585.098C902.155 590.915 860.79 607.655 837.322 630.449C818.951 648.376 810.417 667.015 804.372 702.038C799.512 730.056 798.92 775.764 803.068 807.106C805.202 824.083 810.417 852.814 811.958 856.85C814.328 863.261 845.5 875.134 876.435 881.426C892.081 884.631 895.992 884.987 907.726 884.513C915.075 884.275 921.712 883.444 922.305 882.85C923.134 882.019 922.305 879.764 919.816 876.202C906.896 856.969 905.593 829.545 916.853 809.481C924.438 795.709 941.269 783.243 957.151 779.325C966.396 776.951 983.108 777.545 992.235 780.275C1024.59 790.367 1043.67 826.695 1035.26 862.312C1031.11 880.001 1017.6 900.896 1001.95 914.074C978.841 933.188 957.981 943.754 933.802 948.385C917.327 951.471 862.212 950.403 844.908 946.604C842.3 946.129 840.404 946.129 840.404 946.722C840.404 947.316 842.3 952.777 844.671 958.832C857.945 992.786 885.443 1040.75 916.378 1084.32C954.662 1137.98 999.465 1186.18 1043.67 1221.32C1065.72 1238.9 1099.62 1260.86 1117.16 1269.05L1123.09 1271.9L1123.68 1137.98L1124.27 1004.18L1126.88 999.316C1130.91 991.718 1134.82 987.8 1141.7 984.001C1146.91 981.152 1149.4 980.558 1156.27 980.558C1170.02 980.439 1181.28 987.563 1186.97 999.91C1189.46 1005.37 1189.46 1005.61 1189.82 1138.58L1190.05 1271.9L1199.89 1267.03C1292.93 1220.14 1394.51 1109.13 1456.62 986.138C1465.03 969.398 1474.87 946.604 1474.04 945.654C1473.8 945.535 1468.71 946.248 1462.54 947.316C1447.61 949.928 1394.27 950.996 1380.76 949.097C1361.44 946.248 1344.61 939.362 1325.05 926.302C1288.79 901.965 1270.65 869.91 1274.33 836.43C1275.51 825.627 1276.81 821.234 1282.39 810.668C1290.21 795.59 1306.21 783.006 1322.68 779.207C1331.45 777.189 1347.57 777.426 1355.63 779.8C1397.95 792.147 1414.66 838.092 1390.84 876.202C1386.09 883.681 1386.21 883.681 1402.33 884.513C1419.04 885.462 1445.71 880.476 1470.48 871.691C1481.15 867.892 1495.85 861.243 1499.76 858.156C1502.37 856.257 1506.52 836.549 1510.31 808.293C1513.75 782.294 1513.98 734.805 1510.9 712.367C1506.28 680.193 1498.58 657.874 1487.08 642.915C1465.03 614.303 1427.1 595.308 1373.18 586.047C1362.27 584.148 1344.37 584.029 1161.61 583.792C1002.31 583.554 959.285 583.91 949.091 585.098Z" fill="black"/>
</svg>
