<svg xmlns="http://www.w3.org/2000/svg" width="241.48" height="49.55" viewBox="0 0 241.48 49.55">
  <g id="logo" transform="translate(-21.64 -21.64)">
    <g id="Group_2080" data-name="Group 2080">
      <path id="Path_5574" data-name="Path 5574" d="M116.39,38.43a8.645,8.645,0,0,0,1,.66,5.6,5.6,0,0,0,1.19.5,5.28,5.28,0,0,0,1.49.19,4.006,4.006,0,0,0,2.44-.7,4.066,4.066,0,0,0,1.42-2.11,11.477,11.477,0,0,0,.46-3.54,13.24,13.24,0,0,0-.45-3.83,3.884,3.884,0,0,0-1.43-2.14,4.434,4.434,0,0,0-2.61-.68,5.527,5.527,0,0,0-1.82.33,12.231,12.231,0,0,0-1.7.73v-6.2h-3.49v18h2.92l.57-1.2Zm0-8.14a8.314,8.314,0,0,1,1.07-.48,3.715,3.715,0,0,1,1.31-.22,2.2,2.2,0,0,1,1.05.25,1.827,1.827,0,0,1,.78,1.01,7.2,7.2,0,0,1,.29,2.42,7.272,7.272,0,0,1-.27,2.22,2.053,2.053,0,0,1-.75,1.12,1.971,1.971,0,0,1-1.1.32,4.3,4.3,0,0,1-1.36-.19,7.845,7.845,0,0,1-1.03-.42V30.31Z" fill="#1d1d1b"/>
      <path id="Path_5575" data-name="Path 5575" d="M136.65,39.21V37.16h-3.7a5.792,5.792,0,0,1-1.95-.25,1.522,1.522,0,0,1-.92-.83,4.606,4.606,0,0,1-.3-1.54h3.18a6.7,6.7,0,0,0,2.17-.32,2.809,2.809,0,0,0,1.43-1.06,3.511,3.511,0,0,0,.51-2.02,5.7,5.7,0,0,0-.51-2.67,2.744,2.744,0,0,0-1.64-1.32,9.876,9.876,0,0,0-3.02-.38,8.042,8.042,0,0,0-3.33.57,3.352,3.352,0,0,0-1.75,1.98,11.915,11.915,0,0,0-.52,3.99,10.925,10.925,0,0,0,.55,3.92,3.382,3.382,0,0,0,1.8,1.97,8.382,8.382,0,0,0,3.35.55,16.343,16.343,0,0,0,2.61-.18c.73-.12,1.4-.24,2.02-.37Zm-6.7-8.68a1.611,1.611,0,0,1,.68-.96,2.549,2.549,0,0,1,1.27-.27,3.3,3.3,0,0,1,1.2.18,1.2,1.2,0,0,1,.66.59,2.449,2.449,0,0,1,.21,1.1,1.261,1.261,0,0,1-.33,1.01,1.577,1.577,0,0,1-1.04.28h-2.88a6.867,6.867,0,0,1,.21-1.93Z" fill="#1d1d1b"/>
      <path id="Path_5576" data-name="Path 5576" d="M140.47,38.44a4.025,4.025,0,0,0,1.69,1.03,7.21,7.21,0,0,0,2.13.31c.55,0,1.11-.03,1.69-.08a13.462,13.462,0,0,0,1.64-.24,13.706,13.706,0,0,0,1.37-.34V37.14h-3.47a4.641,4.641,0,0,1-1.78-.28,1.779,1.779,0,0,1-.97-1.11,7.452,7.452,0,0,1-.29-2.41,8.316,8.316,0,0,1,.29-2.47,1.9,1.9,0,0,1,.96-1.18,4.083,4.083,0,0,1,1.75-.32h3.33v-2a15.036,15.036,0,0,0-2.21-.46,17.286,17.286,0,0,0-2.21-.13,7.736,7.736,0,0,0-2.29.31,3.689,3.689,0,0,0-1.71,1.05,4.826,4.826,0,0,0-1.05,2.02,12.084,12.084,0,0,0-.35,3.21,10.485,10.485,0,0,0,.39,3.13,4.8,4.8,0,0,0,1.1,1.96Z" fill="#1d1d1b"/>
      <path id="Path_5577" data-name="Path 5577" d="M111.16,58.7a4.408,4.408,0,0,0-1.2-1.02,5.5,5.5,0,0,0-1.36-.56,3.647,3.647,0,0,0,1.61-.86,4.233,4.233,0,0,0,1.04-1.61,6.546,6.546,0,0,0,.37-2.27,5.678,5.678,0,0,0-1.48-4.2,6.432,6.432,0,0,0-4.69-1.48H96.94V68.33h8.89a9.71,9.71,0,0,0,3.55-.57,4.2,4.2,0,0,0,2.19-1.89,7.089,7.089,0,0,0,.75-3.51,6.528,6.528,0,0,0-.31-2.12,4.679,4.679,0,0,0-.85-1.56Zm-9.89-8.1h4.15a2.155,2.155,0,0,1,1.49.56,2.527,2.527,0,0,1,.58,1.99,2.837,2.837,0,0,1-.54,1.8,1.773,1.773,0,0,1-1.48.69h-4.21V50.61Zm6.62,12.66a2.053,2.053,0,0,1-.86.91,2.737,2.737,0,0,1-1.32.29h-4.44v-5.5h4.44a2.571,2.571,0,0,1,1.29.32,2.336,2.336,0,0,1,.88.91,2.992,2.992,0,0,1,.32,1.43A3.632,3.632,0,0,1,107.89,63.26Z" fill="#1d1d1b"/>
      <path id="Path_5578" data-name="Path 5578" d="M128.22,58.99a4.323,4.323,0,0,0,1.1-1.08,5.377,5.377,0,0,0,.77-1.72,9.81,9.81,0,0,0,.29-2.54,10.457,10.457,0,0,0-.48-3.45,5.1,5.1,0,0,0-1.33-2.11,4.886,4.886,0,0,0-1.96-1.07,8.763,8.763,0,0,0-2.4-.31h-8.95V68.34h4.33V60.27c.25.02.54.03.85.03h.94c.31,0,.62,0,.92.01s.57.01.8.01l3.48,8.01h4.41l-4.03-8.68a7.655,7.655,0,0,0,1.26-.67Zm-2.35-3.77a2.481,2.481,0,0,1-.54.98,1.959,1.959,0,0,1-.82.51,3.413,3.413,0,0,1-1.05.15H119.6V50.6h3.86a3.773,3.773,0,0,1,1.05.13,1.935,1.935,0,0,1,.82.47,2.2,2.2,0,0,1,.54.94,4.96,4.96,0,0,1,.19,1.51,5.369,5.369,0,0,1-.19,1.58Z" fill="#1d1d1b"/>
      <path id="Path_5579" data-name="Path 5579" d="M139.01,46.71l-6.78,21.63h4.44l1.35-4.53h7.37l1.37,4.53h4.5l-6.78-21.63Zm.03,13.22,2.66-9.5,2.66,9.5Z" fill="#1d1d1b"/>
      <path id="Path_5580" data-name="Path 5580" d="M166.32,60.98l-9.07-14.27h-3.48V68.35h4.36V54.08l9.03,14.27h3.48V46.71h-4.32Z" fill="#1d1d1b"/>
      <path id="Path_5581" data-name="Path 5581" d="M205.84,41.13h-3.47l-2.43,4.09h2.54Z" fill="#1d1d1b"/>
      <path id="Path_5582" data-name="Path 5582" d="M201.05,57.38l-4.27-10.67h-4.5L198.8,61.8v6.55h4.32V61.8l6.5-15.09h-4.33Z" fill="#1d1d1b"/>
      <path id="Path_5583" data-name="Path 5583" d="M223.52,56.26a6.515,6.515,0,0,0-3.23-.72h-2.13a3.012,3.012,0,0,1-1.9-.5,1.942,1.942,0,0,1-.64-1.64v-.58a2.4,2.4,0,0,1,.41-1.49,2.09,2.09,0,0,1,1.18-.72,7.332,7.332,0,0,1,1.77-.19c.94,0,1.95.03,3.05.09s2.1.12,3,.18V47.27c-.53-.12-1.15-.23-1.89-.34s-1.49-.2-2.28-.28a23.558,23.558,0,0,0-2.38-.12,8.109,8.109,0,0,0-5.18,1.46,5.568,5.568,0,0,0-1.81,4.62v1.05c0,2.18.55,3.73,1.65,4.63a7.269,7.269,0,0,0,4.75,1.36h1.84a2.349,2.349,0,0,1,1.62.51,1.878,1.878,0,0,1,.57,1.48v.79a1.9,1.9,0,0,1-.44,1.33,2.329,2.329,0,0,1-1.24.67,8.734,8.734,0,0,1-1.91.19c-.74,0-1.48,0-2.28-.03s-1.57-.05-2.31-.09-1.4-.09-1.99-.15v3.42c.45.12.94.22,1.49.31s1.13.17,1.74.23,1.22.12,1.81.15,1.17.04,1.74.04a14.376,14.376,0,0,0,3.93-.48,4.667,4.667,0,0,0,2.63-1.83,6.728,6.728,0,0,0,.95-3.89V61.07a6.269,6.269,0,0,0-.63-2.86,4.515,4.515,0,0,0-1.9-1.97Z" fill="#1d1d1b"/>
      <path id="Path_5584" data-name="Path 5584" d="M238.05,46.77q-1.68-.06-3.87-.06a6.839,6.839,0,0,0-1.72.23,4.741,4.741,0,0,0-1.61.79,3.851,3.851,0,0,0-1.17,1.52,5.814,5.814,0,0,0-.44,2.4V63.72a5.354,5.354,0,0,0,.54,2.62,3.61,3.61,0,0,0,1.37,1.42,5.076,5.076,0,0,0,1.74.6,10.946,10.946,0,0,0,1.61.13c.96,0,1.96-.02,3.03-.06s2.11-.09,3.16-.15,1.99-.14,2.85-.23V64.43h-8.16a2.421,2.421,0,0,1-.89-.16,1.3,1.3,0,0,1-.67-.58,2.407,2.407,0,0,1-.25-1.18V59.53l8.57-.23V55.88l-8.57-.23V52.52a1.736,1.736,0,0,1,.5-1.35,2.011,2.011,0,0,1,1.4-.44h8.07V47.1c-.74-.08-1.56-.14-2.46-.19s-1.91-.09-3.03-.13Z" fill="#1d1d1b"/>
      <path id="Path_5585" data-name="Path 5585" d="M257.33,57.59l5.61-10.88h-4.62l-4.44,8.95h-2.87V46.71h-4.32V68.35h4.32V59.58h2.87l4.62,8.77h4.62Z" fill="#1d1d1b"/>
      <path id="Path_5586" data-name="Path 5586" d="M184.69,45.87H180.5a6.628,6.628,0,0,0-6.62,6.62V68.34h10.81a6.628,6.628,0,0,0,6.62-6.62V52.49A6.628,6.628,0,0,0,184.69,45.87Zm2.41,15.85a2.411,2.411,0,0,1-2.41,2.41H178.1V52.5a2.411,2.411,0,0,1,2.41-2.41h4.19a2.411,2.411,0,0,1,2.41,2.41v9.23Z" fill="#1d1d1b"/>
      <path id="Path_5587" data-name="Path 5587" d="M105.41,39.9H101.6a5.356,5.356,0,0,1-5.35-5.35V27.22a5.4,5.4,0,0,1,5.39-5.39h3.78a5.4,5.4,0,0,1,5.39,5.39v7.29a5.4,5.4,0,0,1-5.39,5.39Zm-3.78-14.82a2.138,2.138,0,0,0-2.13,2.13v7.33a2.1,2.1,0,0,0,2.09,2.09h3.81a2.138,2.138,0,0,0,2.13-2.13V27.21a2.138,2.138,0,0,0-2.13-2.13h-3.78Z" fill="#1d1d1b"/>
    </g>
    <g id="Group_2081" data-name="Group 2081">
      <path id="Path_5588" data-name="Path 5588" d="M59.31,67.73a22.221,22.221,0,0,1-8.42-42.78,21.91,21.91,0,0,1,8.42-1.66H81.54V45.52A22.242,22.242,0,0,1,59.31,67.73Zm0-39.31a16.742,16.742,0,0,0-6.47,1.28,17.1,17.1,0,0,0-5.62,27.91,16.877,16.877,0,0,0,8.49,4.61h.02a16.475,16.475,0,0,0,3.57.39A17.11,17.11,0,0,0,76.4,45.52V28.42H59.3Z" fill="#41a1ae"/>
      <path id="Path_5589" data-name="Path 5589" d="M43.43,71.19A21.806,21.806,0,0,1,21.64,49.41V23.19H44.5A21.79,21.79,0,0,1,66.29,44.98v3.35a22.709,22.709,0,0,1-6.7,16.16,24.165,24.165,0,0,1-2.83,2.41h0a22.706,22.706,0,0,1-13.33,4.29ZM26.97,28.53V49.41A16.467,16.467,0,0,0,43.42,65.85a17.388,17.388,0,0,0,10.21-3.29h0a17.617,17.617,0,0,0,7.31-14.24V44.97A16.447,16.447,0,0,0,44.49,28.52H26.97Z" fill="#49bdce"/>
    </g>
  </g>
</svg>
